<?xml version="1.0" encoding="utf-8"?>
<!-- Generator: Adobe Illustrator 27.0.0, SVG Export Plug-In . SVG Version: 6.00 Build 0)  -->
<svg version="1.1" id="Capa_1" xmlns="http://www.w3.org/2000/svg" xmlns:xlink="http://www.w3.org/1999/xlink" x="0px" y="0px"
	 viewBox="0 0 573.18 248.6" style="enable-background:new 0 0 573.18 248.6;" xml:space="preserve">
<style type="text/css">
	.st0{fill:none;stroke:#000000;stroke-width:0.2835;stroke-miterlimit:10;}
	.st1{fill:#E30613;}
	.st2{fill:#FFED00;stroke:#000000;stroke-width:0.2835;stroke-miterlimit:10;}
	.st3{fill:#E94E1B;}
	.st4{fill:#3C3C3B;}
	.st5{fill:#E6007E;}
	.st6{fill:#009FE3;}
	.st7{fill:#055487;}
</style>
<g>
	<g>
		<path class="st7" d="M117.05,165.52c0-5.7,0.15-10.39,0.46-14.06H114c-1.63,9.17-4.03,16.4-7.18,21.7
			c-3.16,5.3-6.6,9.04-10.31,11.23c-3.72,2.19-7.26,3.29-10.62,3.29h-5.04c-2.65,0-4.64-0.23-5.96-0.69
			c-1.32-0.46-2.22-1.37-2.67-2.75c-0.46-1.38-0.69-3.44-0.69-6.19v-39.73h1.53c3.87,0,7.28,0.89,10.24,2.67
			c2.95,1.78,5.37,4.2,7.26,7.26c1.88,3.06,3.13,6.47,3.74,10.24h3.51c-0.41-5.81-0.66-10.24-0.76-13.29
			c-0.1-3.06-0.15-5.86-0.15-8.41c0-2.54-0.03-5.35-0.08-8.4c-0.05-3.06,0.13-7.49,0.54-13.3h-3.51c-0.41,2.24-1.2,4.53-2.37,6.88
			c-1.17,2.35-2.65,4.53-4.43,6.57c-1.78,2.04-3.85,3.67-6.19,4.89c-2.34,1.22-4.94,1.83-7.79,1.83h-1.53V96.14
			c0-2.85,0.23-4.94,0.69-6.27c0.46-1.32,1.35-2.22,2.67-2.67c1.32-0.46,3.31-0.69,5.96-0.69h1.99c4.18,0,8.18,0.99,12,2.98
			c3.82,1.99,7.16,5.4,10.01,10.24c2.85,4.84,4.89,11.49,6.11,19.94h3.51c-0.1-1.32-0.21-2.95-0.31-4.89
			c-0.1-1.93-0.15-3.97-0.15-6.11c0-2.55,0.08-6.19,0.23-10.93c0.15-4.74,0.43-9.65,0.84-14.75c-4.69,0.21-10.01,0.33-15.97,0.38
			c-5.96,0.05-11.28,0.08-15.97,0.08c-2.75,0-6.24,0-10.47,0c-4.23,0-8.81-0.02-13.75-0.08c-4.94-0.05-9.93-0.1-14.98-0.15
			c-5.04-0.05-9.81-0.13-14.29-0.23v3.06c3.06,0.1,5.37,0.48,6.95,1.14c1.58,0.67,2.62,1.89,3.13,3.67
			c0.51,1.78,0.76,4.56,0.76,8.33v75.79c0,3.67-0.26,6.42-0.76,8.25c-0.51,1.83-1.53,3.06-3.06,3.67c-1.53,0.61-3.87,1.02-7.03,1.22
			v3.06c4.48-0.1,9.24-0.18,14.29-0.23c5.04-0.05,10.03-0.1,14.98-0.15c4.94-0.05,9.52-0.08,13.75-0.08c4.23,0,7.72,0,10.47,0
			c5.09,0,10.9,0.03,17.42,0.08c6.52,0.05,12.38,0.18,17.57,0.38c-0.51-5.09-0.82-10.01-0.92-14.75
			C117.1,171.71,117.05,168.06,117.05,165.52z"/>
		<path class="st7" d="M172.05,187.98v3.21c-2.03-0.11-5.09-0.23-9.16-0.39c-4.08-0.15-8.26-0.23-12.53-0.23
			c-4.29,0-8.62,0.08-12.99,0.23c-4.38,0.15-7.69,0.28-9.93,0.39v-3.21c3.16,0,5.36-0.77,6.64-2.3c1.28-1.53,1.91-4.42,1.91-8.71
			V90.02c0-4.58-0.62-7.97-1.83-10.16c-1.22-2.19-3.47-3.28-6.72-3.28v-3.21c3.25,0.31,6.41,0.46,9.46,0.46
			c5.1,0,9.87-0.18,14.29-0.54c4.44-0.35,8.54-0.89,12.3-1.6v37.1c-1.56,2.3-2.99,4.7-4.29,7.24c-8.82,17.48-6.81,39.79,4.29,56.09
			v4.84c0,4.29,0.65,7.18,1.91,8.71C166.69,187.21,168.91,187.98,172.05,187.98z"/>
		<path class="st7" d="M353.13,187.98v3.21c-2.03-0.11-5.12-0.23-9.23-0.39c-4.13-0.15-8.19-0.23-12.16-0.23
			c-4.27,0-8.45,0.08-12.52,0.23c-4.08,0.15-7.14,0.28-9.17,0.39v-3.21c2.65,0,4.49-0.77,5.5-2.3c1.02-1.53,1.53-4.42,1.53-8.71
			v-49.67c0-2.14-0.26-3.92-0.77-5.35c-0.51-1.42-1.29-2.5-2.36-3.21c-1.08-0.71-2.53-1.06-4.36-1.06s-3.59,0.45-5.27,1.37
			c-1.68,0.91-3.05,2.22-4.13,3.9c-1.06,1.68-1.6,3.59-1.6,5.72v48.29c0,4.29,0.54,7.18,1.6,8.71c1.08,1.53,2.88,2.3,5.43,2.3v3.21
			c-1.93-0.11-4.78-0.23-8.56-0.39c-3.76-0.15-7.63-0.23-11.61-0.23c-4.29,0-8.62,0.08-12.99,0.23c-4.38,0.15-7.69,0.28-9.93,0.39
			v-3.21c3.16,0,5.36-0.77,6.64-2.3c1.28-1.53,1.91-4.42,1.91-8.71V166.7c4.62-8.43,7.31-18.87,8.25-24.39
			c1.05-6.2,0.97-7.43,0.74-11.04l-0.08-0.99c-0.29-4.92-1.36-8.35-2.42-11.44c-0.71-2.05-2.02-5.23-3.41-8.57l-0.32-0.79
			c-0.39-0.91-0.76-1.82-1.13-2.68l-0.79-1.91c-0.15-0.42-0.42-0.89-0.85-1.6V90.02c0-4.58-0.62-7.97-1.83-10.16
			c-1.22-2.19-3.47-3.28-6.72-3.28v-3.21c3.25,0.31,6.41,0.46,9.48,0.46c5.09,0,9.85-0.18,14.27-0.54c4.44-0.35,8.54-0.89,12.3-1.6
			v49.51c2.45-4.08,5.73-7.01,9.87-8.79c4.12-1.79,8.94-2.68,14.44-2.68c4.67,0,8.37,0.59,11.07,1.76c2.7,1.17,4.76,2.62,6.2,4.36
			c1.53,1.83,2.64,4.27,3.36,7.34c0.71,3.05,1.06,7.18,1.06,12.38v41.4c0,4.29,0.63,7.18,1.91,8.71
			C347.77,187.21,349.97,187.98,353.13,187.98z"/>
		<path class="st7" d="M367.12,94.69c2.9,2.19,7,3.29,12.3,3.29c5.3,0,9.4-1.09,12.3-3.29c2.9-2.19,4.35-5.47,4.35-9.85
			c0-4.38-1.45-7.67-4.35-9.86c-2.9-2.19-7.01-3.28-12.3-3.28c-5.3,0-9.4,1.1-12.3,3.28c-2.9,2.19-4.35,5.48-4.35,9.86
			C362.76,89.22,364.21,92.5,367.12,94.69z"/>
		<path class="st7" d="M396,185.69c-1.28-1.53-1.91-4.43-1.91-8.71V110.2c-3.77,0.71-7.87,1.25-12.3,1.6
			c-4.43,0.36-9.19,0.53-14.29,0.53c-3.06,0-6.22-0.15-9.47-0.46v3.21c3.26,0,5.5,1.1,6.72,3.28c1.22,2.19,1.83,5.58,1.83,10.16
			v48.44c0,4.28-0.64,7.18-1.91,8.71c-1.28,1.53-3.49,2.29-6.65,2.29v3.21c2.24-0.1,5.55-0.23,9.93-0.38
			c4.38-0.15,8.71-0.23,12.99-0.23c4.28,0,8.45,0.08,12.53,0.23c4.07,0.15,7.13,0.28,9.17,0.38v-3.21
			C399.48,187.98,397.27,187.22,396,185.69z"/>
		<path class="st7" d="M536.88,185.69c-1.28-1.53-1.91-4.43-1.91-8.71v-41.41c0-5.19-0.36-9.32-1.07-12.38
			c-0.71-3.06-1.83-5.5-3.36-7.33c-1.43-1.73-3.49-3.18-6.19-4.35c-2.7-1.17-6.39-1.76-11.08-1.76c-5.5,0-10.47,0.94-14.9,2.83
			c-4.3,1.83-7.8,5.32-10.51,10.45c-0.72-2.98-1.82-5.37-3.32-7.17c-1.43-1.73-3.49-3.18-6.19-4.35c-2.7-1.17-6.39-1.76-11.08-1.76
			c-5.1,0-9.58,0.89-13.45,2.67c-3.87,1.78-6.98,4.71-9.32,8.79v-11c-3.77,0.71-7.87,1.25-12.3,1.6c-4.43,0.36-9.19,0.53-14.29,0.53
			c-3.06,0-6.22-0.15-9.47-0.46v3.21c3.26,0,5.5,1.1,6.72,3.28c1.22,2.19,1.83,5.58,1.83,10.16v48.44c0,4.28-0.64,7.18-1.91,8.71
			c-1.28,1.53-3.49,2.29-6.65,2.29v3.21c2.24-0.1,5.55-0.23,9.93-0.38c4.38-0.15,8.71-0.23,12.99-0.23c3.67,0,7.26,0.08,10.77,0.23
			c3.51,0.15,6.14,0.28,7.87,0.38v-3.21c-2.04,0-3.46-0.76-4.28-2.29c-0.82-1.53-1.22-4.43-1.22-8.71v-48.29
			c0-2.14,0.53-4.05,1.6-5.73c1.07-1.68,2.44-2.98,4.13-3.9c1.68-0.92,3.44-1.38,5.27-1.38c1.43,0,2.57,0.36,3.44,1.07
			c0.86,0.71,1.5,1.79,1.91,3.21c0.41,1.43,0.61,3.21,0.61,5.35v49.66c0,4.28-0.41,7.18-1.22,8.71c-0.82,1.53-2.24,2.29-4.28,2.29
			v3.21c1.93-0.1,4.79-0.23,8.56-0.38c3.77-0.15,7.64-0.23,11.61-0.23c3.67,0,7.41,0.08,11.23,0.23c3.82,0.15,6.7,0.28,8.63,0.38
			v-3.21c-2.65,0-4.48-0.76-5.5-2.29c-1.02-1.53-1.53-4.43-1.53-8.71v-41.41c0-2.39-0.08-4.54-0.23-6.47
			c0.25-1.94,0.85-3.73,1.83-5.37c1.07-1.78,2.45-3.23,4.13-4.36c1.68-1.12,3.44-1.68,5.27-1.68c1.83,0,3.29,0.36,4.35,1.07
			c1.07,0.71,1.86,1.79,2.37,3.21c0.51,1.43,0.76,3.21,0.76,5.35v49.66c0,4.28-0.41,7.18-1.22,8.71c-0.82,1.53-2.24,2.29-4.28,2.29
			v3.21c1.93-0.1,4.79-0.23,8.56-0.38c3.77-0.15,7.64-0.23,11.61-0.23c3.97,0,8.02,0.08,12.15,0.23c4.13,0.15,7.21,0.28,9.24,0.38
			v-3.21C540.37,187.98,538.15,187.22,536.88,185.69z"/>
		<g>
			<g>
				<path class="st7" d="M227.99,151.61c0,13.66-1.03,23.52-3.07,29.58c-2.03,6.06-4.58,9.08-7.63,9.08c-3.07,0-5.61-3.02-7.65-9.08
					c-2.03-6.06-3.05-15.92-3.05-29.58c0-13.64,1.02-23.52,3.05-29.64c2.03-6.1,4.58-9.16,7.65-9.16c3.05,0,5.6,3.05,7.63,9.16
					C226.96,128.08,227.99,137.96,227.99,151.61z"/>
				<path class="st7" d="M275.01,141.57c-1.05,6.21-4.47,18.94-10.25,27.07c-8,11.24-18.62,18.85-31.88,22.66
					c-0.63,0.18-1.26,0.34-1.91,0.48c2.48-0.62,4.84-1.43,7.03-2.42c5.86-2.65,10.42-7.03,13.67-13.15c3.27-6.1,4.89-14.3,4.89-24.6
					c0-10.28-1.62-18.48-4.89-24.6c-3.25-6.1-7.82-10.51-13.67-13.21c-5.86-2.7-12.76-4.05-20.7-4.05c-7.85,0-14.72,1.36-20.64,4.05
					c-5.9,2.7-10.48,7.11-13.75,13.21c-3.25,6.12-4.89,14.32-4.89,24.6c0,10.3,1.63,18.5,4.89,24.6c3.27,6.12,7.85,10.5,13.75,13.15
					c1.7,0.76,3.47,1.4,5.32,1.94c-6.72-1.59-15.06-4.04-18.24-6.04c-3.95-2.48-8.4-6.06-11.51-9.28
					c-14.09-14.58-18.76-38.83-9.09-57.96c3.9-7.74,9.45-14.2,15.17-20.56c4.08-4.53,8.09-9.16,11.79-14
					c2.87-3.78,4.56-8.2,4.73-13.06c0.05-1.83,0-3.67,0-5.5c1.29,1.08,2.39,2.24,3.05,3.62c2.93,6.04,2.44,12.42,1.82,18.79
					c7.55-21.41,2.88-40.57-11.19-58.19c24.2,3.07,44.01,13.4,58.58,32.8c14.49,19.35,19.14,41.16,15.29,64.93
					c2.93-6.84,4.55-13.95,4.64-21.8c0.48,0.74,0.76,1.22,0.88,1.51c1.91,4.67,4.52,10.7,5.55,13.7c1.03,3.02,1.94,6.04,2.2,10.3
					C275.9,134.8,276.06,135.37,275.01,141.57z"/>
			</g>
		</g>
	</g>
	<g>
		<path class="st7" d="M29.65,219.36V203.1h6.73c0.7,0,1.35,0.15,1.94,0.44c0.59,0.29,1.1,0.68,1.52,1.18
			c0.43,0.5,0.76,1.05,1.01,1.65c0.24,0.6,0.37,1.22,0.37,1.84c0,0.89-0.19,1.72-0.58,2.51c-0.39,0.79-0.94,1.42-1.64,1.91
			c-0.7,0.49-1.53,0.73-2.47,0.73h-5.27v6H29.65z M31.25,211.94h5.2c0.64,0,1.2-0.18,1.67-0.53c0.47-0.35,0.84-0.81,1.1-1.37
			c0.26-0.57,0.39-1.18,0.39-1.83c0-0.67-0.15-1.29-0.46-1.85c-0.31-0.57-0.71-1.01-1.2-1.34c-0.5-0.33-1.04-0.49-1.64-0.49h-5.06
			V211.94z"/>
		<path class="st7" d="M54.68,203.1h1.35l6.76,16.26h-1.7l-2.03-5.09h-7.43l-2.03,5.09h-1.72L54.68,203.1z M58.56,213.02l-3.21-8.04
			l-3.21,8.04H58.56z"/>
		<path class="st7" d="M72,219.36V203.1h6.87c0.7,0,1.34,0.15,1.92,0.44c0.58,0.29,1.09,0.68,1.52,1.18
			c0.44,0.5,0.77,1.05,1.01,1.65c0.24,0.6,0.35,1.22,0.35,1.84c0,0.78-0.15,1.51-0.45,2.2c-0.3,0.69-0.72,1.27-1.26,1.74
			c-0.54,0.47-1.18,0.79-1.91,0.94l3.99,6.28h-1.81l-3.83-6H73.6v6H72z M73.6,211.94h5.31c0.64,0,1.2-0.18,1.67-0.53
			c0.47-0.35,0.84-0.81,1.1-1.39c0.26-0.57,0.39-1.18,0.39-1.82c0-0.66-0.15-1.26-0.45-1.82c-0.3-0.56-0.69-1.01-1.19-1.35
			c-0.5-0.34-1.05-0.52-1.66-0.52H73.6V211.94z"/>
		<path class="st7" d="M98.87,203.1h1.35l6.76,16.26h-1.7l-2.03-5.09h-7.43l-2.03,5.09h-1.72L98.87,203.1z M102.74,213.02
			l-3.21-8.04l-3.21,8.04H102.74z"/>
		<path class="st7" d="M128.19,219.36V203.1h1.6v14.84h9.39v1.42H128.19z"/>
		<path class="st7" d="M153.45,203.1h1.35l6.76,16.26h-1.7l-2.03-5.09h-7.43l-2.03,5.09h-1.72L153.45,203.1z M157.33,213.02
			l-3.21-8.04l-3.21,8.04H157.33z"/>
		<path class="st7" d="M189.3,219.48c-1.08,0-2.09-0.23-3.02-0.7c-0.93-0.46-1.74-1.1-2.43-1.89c-0.69-0.79-1.22-1.68-1.59-2.66
			c-0.37-0.98-0.56-1.98-0.56-3.02c0-1.1,0.19-2.14,0.56-3.13c0.37-0.99,0.9-1.86,1.57-2.62c0.67-0.76,1.47-1.37,2.38-1.81
			c0.92-0.44,1.92-0.66,3-0.66c1.6,0,2.91,0.33,3.92,0.98c1.01,0.66,1.77,1.51,2.29,2.57l-1.24,0.82c-0.52-1.01-1.21-1.75-2.08-2.22
			c-0.87-0.47-1.84-0.71-2.91-0.71c-0.9,0-1.71,0.19-2.44,0.57c-0.73,0.38-1.35,0.89-1.87,1.53s-0.91,1.37-1.18,2.18
			c-0.27,0.81-0.4,1.65-0.4,2.52c0,0.92,0.15,1.78,0.46,2.6c0.31,0.82,0.74,1.54,1.31,2.18c0.56,0.63,1.22,1.13,1.96,1.49
			c0.74,0.36,1.54,0.54,2.39,0.54c0.99,0,1.93-0.25,2.82-0.75c0.89-0.5,1.73-1.26,2.54-2.3v1.7
			C193.23,218.55,191.41,219.48,189.3,219.48z M194.52,212.61h-3.62v-1.24h4.97v7.99h-1.35V212.61z"/>
		<path class="st7" d="M206.04,219.36V203.1h1.6v14.84h9.39v1.42H206.04z"/>
		<path class="st7" d="M232.82,219.48c-1.15,0-2.18-0.23-3.12-0.69c-0.93-0.46-1.73-1.08-2.4-1.87c-0.67-0.79-1.19-1.67-1.56-2.66
			c-0.37-0.99-0.55-2-0.55-3.04c0-1.08,0.19-2.12,0.57-3.1c0.38-0.98,0.92-1.86,1.61-2.63c0.69-0.77,1.51-1.38,2.44-1.83
			c0.93-0.45,1.94-0.68,3.02-0.68c1.15,0,2.18,0.24,3.12,0.71c0.93,0.47,1.73,1.11,2.39,1.9c0.66,0.79,1.18,1.68,1.55,2.66
			c0.37,0.98,0.55,1.98,0.55,3c0,1.08-0.19,2.12-0.57,3.1c-0.38,0.99-0.92,1.86-1.6,2.63c-0.69,0.77-1.5,1.38-2.43,1.82
			C234.91,219.26,233.9,219.48,232.82,219.48z M226.79,211.23c0,0.89,0.14,1.74,0.44,2.56c0.29,0.82,0.7,1.54,1.24,2.18
			c0.53,0.63,1.17,1.14,1.91,1.51c0.74,0.37,1.55,0.56,2.44,0.56c0.93,0,1.77-0.2,2.51-0.58c0.74-0.39,1.37-0.91,1.9-1.56
			c0.53-0.65,0.93-1.38,1.2-2.19c0.28-0.81,0.41-1.63,0.41-2.47c0-0.88-0.15-1.73-0.44-2.54c-0.29-0.81-0.71-1.54-1.25-2.18
			c-0.54-0.64-1.18-1.15-1.91-1.51c-0.73-0.37-1.54-0.55-2.43-0.55c-0.92,0-1.74,0.19-2.49,0.57c-0.74,0.38-1.37,0.9-1.9,1.55
			s-0.93,1.38-1.21,2.19C226.93,209.57,226.79,210.39,226.79,211.23z"/>
		<path class="st7" d="M250.34,219.36V203.1h6.87c0.7,0,1.34,0.15,1.92,0.44c0.58,0.29,1.09,0.68,1.52,1.18
			c0.44,0.5,0.77,1.05,1.01,1.65c0.24,0.6,0.35,1.22,0.35,1.84c0,0.78-0.15,1.51-0.45,2.2c-0.3,0.69-0.72,1.27-1.26,1.74
			c-0.54,0.47-1.18,0.79-1.91,0.94l3.99,6.28h-1.81l-3.83-6h-4.81v6H250.34z M251.94,211.94h5.31c0.64,0,1.2-0.18,1.67-0.53
			c0.47-0.35,0.84-0.81,1.1-1.39c0.26-0.57,0.39-1.18,0.39-1.82c0-0.66-0.15-1.26-0.45-1.82c-0.3-0.56-0.69-1.01-1.19-1.35
			c-0.5-0.34-1.05-0.52-1.66-0.52h-5.18V211.94z"/>
		<path class="st7" d="M272.17,219.36V203.1h1.6v16.26H272.17z"/>
		<path class="st7" d="M289.76,203.1h1.35l6.76,16.26h-1.7l-2.03-5.09h-7.43l-2.03,5.09h-1.72L289.76,203.1z M293.64,213.02
			l-3.21-8.04l-3.21,8.04H293.64z"/>
		<path class="st7" d="M319.08,219.36V203.1h5.52c1.73,0,3.16,0.36,4.32,1.09s2.02,1.7,2.6,2.93c0.58,1.23,0.87,2.59,0.87,4.09
			c0,1.65-0.32,3.08-0.95,4.31c-0.63,1.22-1.53,2.17-2.7,2.84c-1.17,0.67-2.55,1.01-4.13,1.01H319.08z M330.78,211.21
			c0-1.3-0.24-2.45-0.72-3.46c-0.48-1.01-1.18-1.8-2.1-2.37c-0.92-0.57-2.04-0.86-3.37-0.86h-3.92v13.42h3.92
			c1.34,0,2.47-0.3,3.39-0.89c0.92-0.6,1.61-1.4,2.08-2.42C330.55,213.62,330.78,212.48,330.78,211.21z"/>
		<path class="st7" d="M353.25,217.95v1.42h-10.93V203.1h10.72v1.42h-9.12v5.86h7.95v1.35h-7.95v6.21H353.25z"/>
		<path class="st7" d="M375.86,219.36V203.1h6.73c0.7,0,1.35,0.15,1.94,0.44c0.59,0.29,1.1,0.68,1.52,1.18
			c0.43,0.5,0.76,1.05,1.01,1.65c0.24,0.6,0.37,1.22,0.37,1.84c0,0.89-0.19,1.72-0.58,2.51c-0.39,0.79-0.94,1.42-1.64,1.91
			c-0.7,0.49-1.53,0.73-2.47,0.73h-5.27v6H375.86z M377.46,211.94h5.2c0.64,0,1.2-0.18,1.67-0.53c0.47-0.35,0.84-0.81,1.1-1.37
			c0.26-0.57,0.39-1.18,0.39-1.83c0-0.67-0.15-1.29-0.46-1.85c-0.31-0.57-0.71-1.01-1.2-1.34c-0.5-0.33-1.04-0.49-1.64-0.49h-5.06
			V211.94z"/>
		<path class="st7" d="M400.9,203.1h1.35l6.76,16.26h-1.7l-2.03-5.09h-7.43l-2.03,5.09h-1.72L400.9,203.1z M404.77,213.02
			l-3.21-8.04l-3.21,8.04H404.77z"/>
		<path class="st7" d="M418.21,219.36V203.1h6.73c0.7,0,1.35,0.15,1.94,0.44c0.59,0.29,1.1,0.68,1.52,1.18
			c0.43,0.5,0.76,1.05,1.01,1.65c0.24,0.6,0.37,1.22,0.37,1.84c0,0.89-0.19,1.72-0.58,2.51c-0.39,0.79-0.94,1.42-1.64,1.91
			c-0.7,0.49-1.53,0.73-2.47,0.73h-5.27v6H418.21z M419.82,211.94h5.2c0.64,0,1.2-0.18,1.67-0.53c0.47-0.35,0.84-0.81,1.1-1.37
			c0.26-0.57,0.39-1.18,0.39-1.83c0-0.67-0.15-1.29-0.46-1.85c-0.31-0.57-0.71-1.01-1.2-1.34c-0.5-0.33-1.04-0.49-1.64-0.49h-5.06
			V211.94z"/>
		<path class="st7" d="M443.25,203.1h1.35l6.76,16.26h-1.7l-2.03-5.09h-7.43l-2.03,5.09h-1.72L443.25,203.1z M447.13,213.02
			l-3.21-8.04l-3.21,8.04H447.13z M444.46,200.88l-1.03-0.39l1.35-2.13h1.65L444.46,200.88z"/>
		<path class="st7" d="M472.57,219.36V203.1h5.52c1.73,0,3.16,0.36,4.32,1.09s2.02,1.7,2.6,2.93c0.58,1.23,0.87,2.59,0.87,4.09
			c0,1.65-0.32,3.08-0.95,4.31c-0.63,1.22-1.53,2.17-2.7,2.84c-1.17,0.67-2.55,1.01-4.13,1.01H472.57z M484.27,211.21
			c0-1.3-0.24-2.45-0.72-3.46c-0.48-1.01-1.18-1.8-2.1-2.37c-0.92-0.57-2.04-0.86-3.37-0.86h-3.92v13.42h3.92
			c1.34,0,2.47-0.3,3.39-0.89c0.92-0.6,1.61-1.4,2.08-2.42C484.04,213.62,484.27,212.48,484.27,211.21z"/>
		<path class="st7" d="M495.82,219.36V203.1h1.6v16.26H495.82z"/>
		<path class="st7" d="M514.92,219.48c-1.15,0-2.18-0.23-3.12-0.69c-0.93-0.46-1.73-1.08-2.4-1.87c-0.67-0.79-1.19-1.67-1.56-2.66
			c-0.37-0.99-0.55-2-0.55-3.04c0-1.08,0.19-2.12,0.57-3.1c0.38-0.98,0.92-1.86,1.61-2.63c0.69-0.77,1.51-1.38,2.44-1.83
			c0.93-0.45,1.94-0.68,3.02-0.68c1.15,0,2.18,0.24,3.12,0.71c0.93,0.47,1.73,1.11,2.39,1.9c0.66,0.79,1.18,1.68,1.55,2.66
			c0.37,0.98,0.55,1.98,0.55,3c0,1.08-0.19,2.12-0.57,3.1c-0.38,0.99-0.92,1.86-1.6,2.63c-0.69,0.77-1.5,1.38-2.43,1.82
			C517.01,219.26,516,219.48,514.92,219.48z M508.9,211.23c0,0.89,0.14,1.74,0.44,2.56c0.29,0.82,0.7,1.54,1.24,2.18
			c0.53,0.63,1.17,1.14,1.91,1.51c0.74,0.37,1.55,0.56,2.44,0.56c0.93,0,1.77-0.2,2.51-0.58c0.74-0.39,1.37-0.91,1.9-1.56
			c0.53-0.65,0.93-1.38,1.2-2.19c0.28-0.81,0.41-1.63,0.41-2.47c0-0.88-0.15-1.73-0.44-2.54c-0.29-0.81-0.71-1.54-1.25-2.18
			c-0.54-0.64-1.18-1.15-1.91-1.51c-0.73-0.37-1.54-0.55-2.43-0.55c-0.92,0-1.74,0.19-2.49,0.57c-0.74,0.38-1.37,0.9-1.9,1.55
			s-0.93,1.38-1.21,2.19C509.04,209.57,508.9,210.39,508.9,211.23z"/>
		<path class="st7" d="M541.95,206.15c-0.23-0.26-0.5-0.49-0.8-0.7c-0.31-0.21-0.65-0.39-1.03-0.54c-0.38-0.15-0.79-0.28-1.23-0.37
			c-0.43-0.09-0.9-0.14-1.39-0.14c-1.42,0-2.46,0.27-3.13,0.81c-0.66,0.54-1,1.28-1,2.21c0,0.64,0.16,1.14,0.47,1.51
			c0.31,0.37,0.81,0.66,1.48,0.89c0.67,0.23,1.53,0.47,2.57,0.71c1.16,0.24,2.16,0.53,3,0.87c0.84,0.33,1.49,0.79,1.95,1.36
			c0.46,0.57,0.69,1.35,0.69,2.32c0,0.75-0.14,1.39-0.43,1.94c-0.29,0.55-0.7,1.01-1.21,1.37c-0.52,0.37-1.14,0.64-1.86,0.81
			c-0.72,0.18-1.5,0.26-2.36,0.26c-0.84,0-1.65-0.09-2.42-0.26c-0.77-0.18-1.5-0.44-2.19-0.78c-0.69-0.34-1.33-0.78-1.92-1.32
			l0.8-1.3c0.29,0.31,0.64,0.59,1.04,0.86c0.4,0.27,0.86,0.51,1.35,0.72c0.5,0.21,1.03,0.38,1.6,0.49c0.57,0.11,1.16,0.17,1.77,0.17
			c1.3,0,2.31-0.24,3.03-0.71c0.73-0.47,1.09-1.17,1.09-2.1c0-0.67-0.18-1.21-0.55-1.61c-0.37-0.4-0.92-0.73-1.65-0.99
			c-0.73-0.26-1.63-0.51-2.7-0.75c-1.13-0.26-2.08-0.55-2.86-0.87c-0.78-0.32-1.36-0.74-1.75-1.27c-0.39-0.53-0.58-1.22-0.58-2.09
			c0-1.01,0.25-1.86,0.74-2.55c0.5-0.69,1.18-1.22,2.05-1.58c0.87-0.36,1.87-0.54,3-0.54c0.72,0,1.39,0.07,2,0.22
			c0.62,0.15,1.19,0.35,1.72,0.63c0.53,0.27,1.02,0.62,1.48,1.03L541.95,206.15z"/>
	</g>
</g>
</svg>
